<svg xmlns="http://www.w3.org/2000/svg" viewBox="0 0 24 24" fill="currentColor">
    <path d="M12 2C6.48 2 2 6.48 2 12c0 1.85.5 3.58 1.36 5.08L2 22l4.92-1.36A9.94 9.94 0 0012 22c5.52 0 10-4.48 10-10S17.52 2 12 2zm5.2 14.74c-.27.76-1.34 1.4-2.1 1.58-.56.13-1.25.24-3.63-.77-3.05-1.26-5.02-4.35-5.18-4.56-.15-.2-1.24-1.65-1.24-3.15 0-1.5.78-2.24 1.06-2.55.27-.3.6-.38.8-.38.2 0 .4.01.57.01.18 0 .43-.1.68.52.27.65.92 2.25 1 2.42.08.17.13.37.03.57-.1.2-.15.37-.3.56-.15.2-.31.44-.45.6-.15.15-.3.32-.13.63.17.3.75 1.23 1.6 2 1.1.98 2.03 1.28 2.33 1.43.3.15.47.13.64-.08.17-.2.74-.87.94-1.17.2-.3.4-.25.67-.15.27.1 1.7.8 1.98.94.27.13.45.2.52.3.08.1.08.76-.2 1.52z"/>
</svg>
